<svg width="281" height="348" viewBox="0 0 281 348" fill="none" xmlns="http://www.w3.org/2000/svg">
<g clip-path="url(#clip0_66_310)">
<path d="M197 330.5C182.6 310.5 171.333 271.834 170 252.5L101.5 223L73 330.5H197Z" fill="#F9C9B6" stroke="black" stroke-width="4"/>
<mask id="mask0_66_310" style="mask-type:alpha" maskUnits="userSpaceOnUse" x="73" y="223" width="124" height="118">
<path d="M197 340.5C182.6 320.5 171.333 271.834 170 252.5L101.5 223L73 340.5H197Z" fill="#AC6651"/>
</mask>
<g mask="url(#mask0_66_310)">
<g style="mix-blend-mode:multiply">
<ellipse cx="167" cy="221" rx="59" ry="54" fill="black"/>
</g>
</g>
<mask id="path-4-inside-1_66_310" fill="white">
<path fill-rule="evenodd" clip-rule="evenodd" d="M226.886 161.917C226.859 161.801 226.831 161.685 226.803 161.569C226.776 161.454 226.748 161.338 226.719 161.222L210.323 92.7855C210.306 92.7177 210.29 92.6499 210.274 92.5821C210.258 92.5142 210.242 92.4465 210.225 92.3787L210.152 92.0752L210.151 92.0755C199.933 50.6308 158.156 25.1472 116.582 35.1081C75.0078 45.0689 49.3155 86.7174 58.9883 128.293L58.9863 128.293L75.9776 199.211L75.9916 199.208C86.5944 240.112 128.062 265.149 169.329 255.261C210.597 245.374 236.216 204.264 227.131 162.996L227.144 162.993L226.886 161.917Z"/>
</mask>
<path fill-rule="evenodd" clip-rule="evenodd" d="M226.886 161.917C226.859 161.801 226.831 161.685 226.803 161.569C226.776 161.454 226.748 161.338 226.719 161.222L210.323 92.7855C210.306 92.7177 210.29 92.6499 210.274 92.5821C210.258 92.5142 210.242 92.4465 210.225 92.3787L210.152 92.0752L210.151 92.0755C199.933 50.6308 158.156 25.1472 116.582 35.1081C75.0078 45.0689 49.3155 86.7174 58.9883 128.293L58.9863 128.293L75.9776 199.211L75.9916 199.208C86.5944 240.112 128.062 265.149 169.329 255.261C210.597 245.374 236.216 204.264 227.131 162.996L227.144 162.993L226.886 161.917Z" fill="#F9C9B6"/>
<path d="M226.886 161.917L222.992 162.831L222.994 162.84L222.996 162.849L226.886 161.917ZM226.719 161.222L222.83 162.154L222.832 162.163L222.834 162.172L226.719 161.222ZM210.323 92.7855L206.43 93.7076L206.433 93.7175L210.323 92.7855ZM210.274 92.5821L206.384 93.5141L206.384 93.5142L210.274 92.5821ZM210.225 92.3787L206.335 93.3108L206.338 93.321L210.225 92.3787ZM210.152 92.0752L214.042 91.1432L213.111 87.255L209.222 88.1849L210.152 92.0752ZM210.151 92.0755L206.267 93.0331L207.218 96.8897L211.081 95.9659L210.151 92.0755ZM116.582 35.1081L115.65 31.2182L116.582 35.1081ZM58.9883 128.293L59.9223 132.182L63.7842 131.255L62.8842 127.386L58.9883 128.293ZM58.9863 128.293L58.0523 124.404L54.1649 125.337L55.0964 129.225L58.9863 128.293ZM75.9776 199.211L72.0877 200.143L73.0201 204.035L76.9113 203.101L75.9776 199.211ZM75.9916 199.208L79.8636 198.204L78.8779 194.401L75.058 195.318L75.9916 199.208ZM169.329 255.261L168.397 251.371L168.397 251.371L169.329 255.261ZM227.131 162.996L226.2 159.106L222.381 160.021L223.225 163.856L227.131 162.996ZM227.144 162.993L228.075 166.883L231.966 165.951L231.034 162.061L227.144 162.993ZM230.78 161.002C230.751 160.881 230.722 160.759 230.693 160.637L222.914 162.502C222.94 162.611 222.966 162.721 222.992 162.831L230.78 161.002ZM230.693 160.637C230.664 160.516 230.635 160.395 230.605 160.273L222.834 162.172C222.861 162.281 222.887 162.391 222.914 162.502L230.693 160.637ZM206.433 93.7175L222.83 162.154L230.609 160.29L214.212 91.8535L206.433 93.7175ZM214.215 91.8634C214.198 91.7928 214.181 91.7216 214.164 91.65L206.384 93.5142C206.4 93.5781 206.415 93.6425 206.43 93.7076L214.215 91.8634ZM214.164 91.65C214.147 91.579 214.13 91.5078 214.113 91.4364L206.338 93.321C206.353 93.3851 206.369 93.4494 206.384 93.5141L214.164 91.65ZM206.262 93.0072L206.335 93.3108L214.115 91.4467L214.042 91.1432L206.262 93.0072ZM211.081 95.9659L211.083 95.9655L209.222 88.1849L209.221 88.1852L211.081 95.9659ZM214.035 91.118C203.291 47.5398 159.364 20.7447 115.65 31.2182L117.514 38.998C156.949 29.5498 196.575 53.7219 206.267 93.0331L214.035 91.118ZM115.65 31.2182C71.936 41.6917 44.9216 85.4836 55.0923 129.199L62.8842 127.386C53.7094 87.9513 78.0796 48.4461 117.514 38.998L115.65 31.2182ZM59.9204 132.183L59.9223 132.182L58.0542 124.403L58.0523 124.404L59.9204 132.183ZM79.8676 198.279L62.8763 127.361L55.0964 129.225L72.0877 200.143L79.8676 198.279ZM75.058 195.318L75.044 195.322L76.9113 203.101L76.9252 203.097L75.058 195.318ZM72.1195 200.211C83.2685 243.223 126.869 269.548 170.261 259.151L168.397 251.371C129.254 260.75 89.9204 237.002 79.8636 198.204L72.1195 200.211ZM170.261 259.151C213.653 248.755 240.591 205.53 231.038 162.136L223.225 163.856C231.842 202.999 207.541 241.993 168.397 251.371L170.261 259.151ZM226.212 159.103L226.2 159.106L228.063 166.886L228.075 166.883L226.212 159.103ZM222.996 162.849L223.254 163.925L231.034 162.061L230.776 160.985L222.996 162.849Z" fill="black" mask="url(#path-4-inside-1_66_310)"/>
</g>
<path d="M130.5 194.5C133 211.5 161.5 219.5 187.5 200" stroke="black" stroke-width="4"/>
<path d="M172 100.214C177.667 97.5476 191 95.1143 199 106.714" stroke="black" stroke-width="4" stroke-linecap="round"/>
<path d="M96.5791 125.521C98.6497 119.61 106.261 108.396 120.142 110.822" stroke="black" stroke-width="4" stroke-linecap="round"/>
<ellipse cx="120.53" cy="139.402" rx="9" ry="13.5" transform="rotate(-6.77646 120.53 139.402)" fill="black"/>
<ellipse cx="184.531" cy="129.402" rx="9" ry="13.5" transform="rotate(-6.27568 184.531 129.402)" fill="black"/>
<path d="M159.5 145C159.167 148.833 159.5 157.2 163.5 160C168.5 163.5 163 172 153 170" stroke="#171921" stroke-width="4"/>
<path d="M216.177 51.3965C207.855 91.2936 109.499 96.8962 89.6772 96.8962C37.6548 102.823 62.6248 165.262 72.1772 196.396C64.6772 197.396 65.6772 206.396 36.6772 134.896C13.4772 77.6964 79.1831 42.8337 127.999 30.9995C176.815 19.1653 195.499 2.50195 195.499 2.50195C216.177 11 221.116 27.7185 216.177 51.3965Z" fill="black"/>
<path d="M211.134 124.947L195.316 71.5069L205.354 62.3644C216.109 99.4523 216.601 120.988 211.134 124.947Z" fill="black"/>
<path d="M86 170C80.4 142.8 66.3333 147.667 57 149L47 105L87.5844 96.5056C88.3363 96.2656 89.1408 96.0955 90 96L87.5844 96.5056C69.4332 102.299 81.9565 148.796 97 168L86 170Z" fill="black"/>
<path d="M30.9887 67.3632C39.8341 62.9091 50.2805 65.4873 54.3981 67.3331L42.6273 82.2134C45.6625 77.3568 36.1329 70.2897 30.9887 67.3632Z" fill="black"/>
<path d="M16 84.4996C27.6 77.6996 38.8333 79.9996 43 81.9996L38.5 97.5C37.3 89.1 23 85.3331 16 84.4996Z" fill="black"/>
<path d="M77.5 148.176C75.17 147.408 72.6547 147 70.08 147C59.5866 147 51.0801 153.5 52.08 165.5C53.1216 178 60.5866 182.5 71.08 182.5C72.2476 182.5 73.3906 182.397 74.5 182.201C75.7105 181.987 76.8811 181.661 78 181.235" stroke="black" stroke-width="8"/>
<path d="M78.5 181.036C76.2204 181.979 73.7127 182.5 71.08 182.5C60.5866 182.5 53.1216 178 52.08 165.5C51.0801 153.5 59.5866 147 70.08 147C73.2175 147 76.2667 147.606 79 148.73L78.5 181.036Z" fill="#F9C9B6"/>
<path d="M74.5 155.5C70.5 153.667 61.7 152.7 58.5 163.5" stroke="black" stroke-width="4"/>
<path d="M64 156C66.1667 157.833 70.3 163.5 69.5 171.5" stroke="black" stroke-width="4"/>
<path d="M142.771 327.578C142.771 327.578 142.771 327.578 144 326L142.771 327.578L144.493 328.919L145.679 327.087L145.679 327.087L145.681 327.084L145.69 327.07L145.731 327.007C145.742 326.99 145.755 326.971 145.769 326.949C145.803 326.897 145.847 326.832 145.9 326.753C146.05 326.528 146.275 326.195 146.57 325.77C147.158 324.919 148.023 323.702 149.118 322.246C151.312 319.332 154.416 315.482 158.071 311.718C161.737 307.945 165.898 304.318 170.198 301.793C174.514 299.26 178.777 297.949 182.733 298.483C225.171 304.205 256.402 323.002 276.674 351.001H3.37453C19.6742 321.659 42.8579 302.983 80.4446 294.413C82.0464 294.047 84.2242 294.158 86.9471 294.791C89.6421 295.418 92.7146 296.519 96.0282 297.976C102.655 300.889 110.052 305.136 117.004 309.536C123.945 313.93 130.39 318.443 135.104 321.86C137.459 323.567 139.379 325 140.709 326.004C141.374 326.506 141.891 326.901 142.241 327.169C142.416 327.304 142.55 327.407 142.639 327.475L142.739 327.553L142.764 327.572L142.77 327.577L142.771 327.578Z" fill="black" stroke="black" stroke-width="4"/>
<path d="M68.6127 297.085L73.7794 277.853C73.9886 277.074 74.9962 276.854 75.5402 277.449C90.4034 293.714 109.16 293.076 115.385 292.33C116.23 292.228 116.892 293.153 116.495 293.906L103.338 318.859C103.136 319.241 102.724 319.452 102.3 319.364C98.3518 318.541 78.6774 313.732 68.7286 297.867C68.583 297.635 68.5416 297.35 68.6127 297.085Z" fill="white" stroke="black" stroke-width="4"/>
<path d="M199.195 296.981L187.615 277.499C187.222 276.837 186.253 276.848 185.834 277.494C180.097 286.33 170.202 290.4 166.742 291.602C166.12 291.819 165.835 292.558 166.171 293.125L179.673 315.94C179.875 316.281 180.255 316.465 180.636 316.357C182.771 315.749 190.096 312.685 199.182 298.021C199.378 297.706 199.385 297.3 199.195 296.981Z" fill="white" stroke="black" stroke-width="4"/>
<path d="M125.5 314.5L116.5 293L109.5 308L125.5 314.5Z" fill="black" stroke="black" stroke-width="4" stroke-linejoin="round"/>
<path d="M157 313.5L166 292L173 307L157 313.5Z" fill="black" stroke="black" stroke-width="4" stroke-linejoin="round"/>
<path d="M86.5 274L74.5 277L84.5 283.5L86.5 274Z" fill="black" stroke="black" stroke-width="4" stroke-linejoin="round"/>
<path d="M176 274L187 277L180 283.5L176 274Z" fill="black" stroke="black" stroke-width="4" stroke-linejoin="round"/>
<defs>
<clipPath id="clip0_66_310">
<rect width="200" height="320" fill="white" transform="translate(43 11)"/>
</clipPath>
</defs>
</svg>
